<?xml version="1.0" encoding="utf-8"?>
<!-- Generator: Adobe Illustrator 26.0.1, SVG Export Plug-In . SVG Version: 6.00 Build 0)  -->
<svg version="1.1" id="Layer_1" xmlns="http://www.w3.org/2000/svg" xmlns:xlink="http://www.w3.org/1999/xlink" x="0px" y="0px"
	 viewBox="0 0 33 32" style="enable-background:new 0 0 33 32;" xml:space="preserve">
<style type="text/css">
	.st0{fill:#FFFFFF;}
	.st1{fill:none;}
	.st2{fill:#5CE1E6;}
</style>
<path class="st0" d="M30.4,13.8c-0.4,0.5-0.8,1-1.2,1.5c-1.2,1.6-2.3,3.2-3.8,4.6c-0.4,0.4-0.8,0.7-1.2,1c-0.3,0.2-0.6,0.3-1,0.3
	c-0.4,0-0.6-0.3-0.7-0.7c0-0.5,0.1-1,0.3-1.4c0.6-1.3,1.3-2.5,2.2-3.6c1-1.4,2-2.7,3-4c0.4-0.5,0.8-1.1,0.9-1.8
	c0.3-1.1-0.1-2-1.1-2.6C27,6.4,26,6.3,25.1,6.8c-0.8,0.4-1.5,0.9-2.1,1.5c-2.2,1.8-4.1,3.8-6.1,5.9c0,0,0,0.1-0.1,0.1c0,0,0,0-0.1,0
	c0.1-0.2,0.3-0.5,0.4-0.7c0.7-1.3,1.4-2.5,2.1-3.8c0.3-0.5,0.4-1.1,0.4-1.7c0-1-0.9-1.9-1.9-1.9c-0.9,0-1.6,0.4-2.3,0.8
	c-1.1,0.8-2.1,1.7-3,2.8c-1.1,1.3-2.2,2.6-3.4,3.9c0,0,0,0-0.1,0c0.2-0.4,0.4-0.8,0.6-1.1c0.7-1.3,1.5-2.6,2.2-3.9
	c0.3-0.5,0.6-1.1,0.6-1.7c0.1-0.8-0.2-1.5-0.7-1.9c-0.6-0.4-1.2-0.4-1.6-0.3c-0.9,0.3-1.5,1-2,1.6c-1.7,2.1-3,4.4-4.1,6.8
	C2.5,16,1.3,18.9,0.5,22c-0.1,0.5-0.2,0.9-0.3,1.3C0,24-0.1,24.9,0,25.6c0.1,0.2,0.1,0.4,0.2,0.5c0.1,0.1,0.1,0.3,0.2,0.4
	c0,0.1,0.1,0.1,0.1,0.2c0.4,0.5,1,0.8,1.6,0.8c0.7,0,1.3-0.3,1.7-1c0.4-0.6,0.7-1.2,1-1.8c0.9-2.1,2.1-3.9,3.5-5.7
	c0.8-1,1.7-2,2.6-2.9c0.4-0.5,0.9-0.8,1.4-1.2c0,0,0,0,0.1,0c-0.1,0.2-0.2,0.3-0.3,0.5c-0.8,1.4-1.7,2.8-2.4,4.4
	c-0.3,0.9-0.7,1.7-1,2.6c-0.2,0.8-0.3,1.6,0,2.3c0.7,1.7,2.8,1.8,3.7,0.6c0.8-1,1.4-2.2,2.1-3.3c1.2-2,2.5-3.9,4.2-5.5
	c0.4-0.4,0.8-0.7,1.2-1.1c0,0,0,0,0.1,0c-0.1,0.1-0.1,0.3-0.2,0.4c-0.8,1.2-1.6,2.4-2.1,3.7c-0.4,1.1-0.7,2.2-0.7,3.4
	c0,1.2,0.3,2.3,1.2,3.2c0.6,0.5,1.3,0.8,2.1,0.9c1.3,0.2,2.5-0.2,3.6-0.8c1.3-0.7,2.5-1.6,3.5-2.6c1.7-1.7,3.2-3.5,4.3-5.6
	c0.5-0.8,0.9-1.6,1-2.6c0,0,0,0,0,0c0-0.3,0-0.5,0-0.8c-0.1-0.2-0.2-0.5-0.4-0.7C32,13.1,31,13.1,30.4,13.8z"/>
<path class="st1" d="M79.7-35.5c0,0,0.1,0.1,0.1,0.1c0-0.1,0.1-0.2,0.2-0.3c0.1-0.1,0.3-0.3,0.4-0.4c-0.2,0.1-0.4,0.2-0.6,0.4
	C79.7-35.7,79.7-35.6,79.7-35.5z"/>
<path class="st2" d="M30.4,13.8c-0.4,0.5-0.8,1-1.2,1.5c-1.2,1.6-2.3,3.2-3.8,4.6c-0.4,0.4-0.8,0.7-1.2,1c-0.3,0.2-0.6,0.3-1,0.3
	c-0.4,0-0.6-0.3-0.7-0.7c0-0.5,0.1-1,0.3-1.4c0.6-1.3,1.3-2.5,2.2-3.6c1-1.4,2-2.7,3-4c0.4-0.5,0.8-1.1,0.9-1.8c0,0,0,0,0-0.1
	c-3.5,0.3-7.5,1.5-11.8,4.4C17,14,17,14,16.9,14.1c0,0,0,0.1-0.1,0.1c0,0,0,0-0.1,0c0,0,0,0,0-0.1c-0.7,0.5-1.3,1-2,1.5
	c-1.6,1.3-3.2,2.5-4.8,3.5c-0.1,0.2-0.1,0.3-0.2,0.5c-0.3,0.9-0.7,1.7-1,2.6c-0.2,0.8-0.3,1.6,0,2.3c0.7,1.7,2.8,1.8,3.7,0.6
	c0.8-1,1.4-2.2,2.1-3.3c1.2-2,2.5-3.9,4.2-5.5c0.4-0.4,0.8-0.7,1.2-1.1c0,0,0,0,0.1,0c-0.1,0.1-0.1,0.3-0.2,0.4
	c-0.8,1.2-1.6,2.4-2.1,3.7c-0.4,1.1-0.7,2.2-0.7,3.4c0,1.2,0.3,2.3,1.2,3.2c0.6,0.5,1.3,0.8,2.1,0.9c1.3,0.2,2.5-0.2,3.6-0.8
	c1.3-0.7,2.5-1.6,3.5-2.6c1.7-1.7,3.2-3.5,4.3-5.6c0.5-0.8,0.9-1.6,1-2.6c0,0,0,0,0,0c0-0.3,0-0.5,0-0.8c-0.1-0.2-0.2-0.5-0.4-0.7
	C32,13.1,31,13.1,30.4,13.8z"/>
</svg>
