<?xml version="1.0" encoding="utf-8"?>
<!-- Generator: Adobe Illustrator 26.0.1, SVG Export Plug-In . SVG Version: 6.00 Build 0)  -->
<svg version="1.1" id="Layer_1" xmlns="http://www.w3.org/2000/svg" xmlns:xlink="http://www.w3.org/1999/xlink" x="0px" y="0px"
	 viewBox="0 0 266 73" style="enable-background:new 0 0 266 73;" xml:space="preserve">
<style type="text/css">
	.st0{fill:none;}
	.st1{fill:#FFFFFF;}
	.st2{fill:#5CE1E6;}
</style>
<path class="st0" d="M-1440.9,947.2c-1.6-2.6-3.1-5.3-4.3-8.2c-1.6-3.7-2.6-7.7-3.9-12C-1447.8,935.1-1445.3,942.2-1440.9,947.2
	C-1440.9,947.2-1440.9,947.2-1440.9,947.2z"/>
<path class="st1" d="M72.1,29.1c-1,1.1-1.9,2.4-2.8,3.6c-2.8,3.8-5.5,7.6-8.9,10.9c-0.9,0.9-1.9,1.6-3,2.3c-0.7,0.5-1.5,0.7-2.4,0.6
	c-1,0-1.5-0.6-1.6-1.6c-0.1-1.2,0.3-2.3,0.8-3.4c1.4-3.1,3.2-5.9,5.1-8.6c2.3-3.2,4.7-6.4,7-9.6c0.9-1.3,1.8-2.6,2.2-4.2
	c0.6-2.5-0.3-4.7-2.5-6.3c-2-1.4-4.2-1.5-6.4-0.5c-1.9,0.8-3.5,2.2-5.1,3.5c-5.2,4.2-9.8,9.1-14.4,14c-0.1,0.1-0.1,0.2-0.2,0.3
	c0,0-0.1-0.1-0.1-0.1c0.3-0.6,0.6-1.1,0.9-1.7c1.6-3,3.3-6,4.9-9c0.7-1.3,1.1-2.7,1-4.1c0-2.3-2.2-4.4-4.5-4.5
	c-2.1-0.1-3.9,0.9-5.5,2c-2.7,1.8-5,4.1-7.1,6.5c-2.7,3-5.3,6.1-8,9.2c0,0-0.1,0.1-0.2,0.1c0.5-0.9,0.9-1.8,1.4-2.7
	c1.8-3.1,3.6-6.1,5.3-9.2c0.7-1.2,1.3-2.5,1.5-4c0.3-1.9-0.4-3.5-1.7-4.5c-1.4-1-2.8-1-3.9-0.8c-2.2,0.6-3.6,2.3-4.8,3.9
	c-3.9,5-7,10.5-9.8,16.2C6,34.2,3.2,41.2,1.1,48.5c-0.3,1.1-0.5,2.2-0.8,3.2c-0.3,1.5-0.5,3.6-0.3,5.3c0.1,0.5,0.3,0.9,0.4,1.3
	c0.1,0.3,0.3,0.6,0.5,0.9c0.1,0.1,0.2,0.3,0.3,0.4c1,1.2,2.4,1.9,3.9,1.9c1.7-0.1,3.1-0.8,4-2.3c0.8-1.4,1.6-2.9,2.3-4.4
	c2.2-4.9,5-9.4,8.4-13.5c2-2.4,4.1-4.7,6.2-7c1-1.1,2.2-2,3.3-3c0,0,0.1-0.1,0.2,0c-0.2,0.4-0.5,0.7-0.7,1.1
	c-1.9,3.4-4.2,6.7-5.6,10.4c-0.8,2-1.7,4.1-2.3,6.2c-0.6,1.8-0.7,3.7,0,5.5c1.6,4,6.6,4.3,8.9,1.3c1.9-2.5,3.4-5.1,5-7.8
	c2.7-4.8,6-9.3,10-13.1c0.9-0.9,1.9-1.7,2.9-2.6c0,0,0.1,0.1,0.1,0.1c-0.2,0.3-0.4,0.6-0.6,0.9c-1.9,2.8-3.7,5.6-4.9,8.8
	c-1,2.6-1.6,5.3-1.6,8c-0.1,2.9,0.7,5.6,2.9,7.6c1.4,1.3,3,2,4.9,2.2c3.1,0.4,5.9-0.6,8.6-2c3.1-1.6,5.9-3.7,8.4-6.2
	c4-4,7.5-8.4,10.3-13.3c1.1-1.9,2.1-3.9,2.4-6.1c0,0,0,0,0.1-0.1c0-0.6,0-1.3,0-1.9c-0.3-0.5-0.6-1.2-1-1.6
	C75.9,27.5,73.6,27.5,72.1,29.1z"/>
<path class="st0" d="M39.9,29.9c0,0,0.1,0.1,0.1,0.1c0-0.1,0.1-0.2,0.2-0.3c0.1-0.1,0.3-0.3,0.4-0.4c-0.2,0.1-0.4,0.2-0.6,0.4
	C40,29.8,39.9,29.9,39.9,29.9z"/>
<path class="st2" d="M0.1,57.1c0.1,0.5,0.2,0.9,0.4,1.3C0.7,58.7,0.8,59,1,59.2c0.1,0.1,0.2,0.3,0.3,0.4c0.9,1.2,2.3,1.9,3.8,1.8
	c1.7-0.1,3.1-0.8,3.9-2.2c0.8-1.4,1.6-2.8,2.2-4.3c1.3-3,2.9-5.9,4.8-8.6c-5.6,3-10.9,5.2-15.8,6.8C0,54.4-0.1,55.9,0.1,57.1z"/>
<path class="st2" d="M72.1,29.1c-1,1.1-1.9,2.4-2.8,3.6c-2.8,3.8-5.5,7.6-8.9,10.9c-0.9,0.9-1.9,1.6-3,2.3c-0.7,0.5-1.5,0.7-2.4,0.6
	c-1,0-1.5-0.6-1.6-1.6c-0.1-1.2,0.3-2.3,0.8-3.4c1.4-3.1,3.2-5.9,5.1-8.6c2.3-3.2,4.7-6.4,7-9.6c0.9-1.3,1.8-2.6,2.2-4.2
	c0,0,0-0.1,0-0.1c-8.3,0.6-17.9,3.5-28,10.4c-0.1,0.1-0.3,0.3-0.4,0.4c-0.1,0.1-0.1,0.2-0.2,0.3c0,0-0.1-0.1-0.1-0.1
	c0-0.1,0.1-0.1,0.1-0.2c-1.6,1.1-3.2,2.3-4.8,3.6c-3.9,3.2-7.7,5.9-11.5,8.3c-0.2,0.4-0.3,0.8-0.5,1.2c-0.8,2-1.7,4.1-2.3,6.2
	c-0.6,1.8-0.7,3.7,0,5.5c1.6,4,6.6,4.3,8.9,1.3c1.9-2.5,3.4-5.1,5-7.8c2.7-4.8,6-9.3,10-13.1c0.9-0.9,1.9-1.7,2.9-2.6
	c0,0,0.1,0.1,0.1,0.1c-0.2,0.3-0.4,0.6-0.6,0.9c-1.9,2.8-3.7,5.6-4.9,8.8c-1,2.6-1.6,5.3-1.6,8c-0.1,2.9,0.7,5.6,2.9,7.6
	c1.4,1.3,3,2,4.9,2.2c3.1,0.4,5.9-0.6,8.6-2c3.1-1.6,5.9-3.7,8.4-6.2c4-4,7.5-8.4,10.3-13.3c1.1-1.9,2.1-3.9,2.4-6.1
	c0,0,0,0,0.1-0.1c0-0.6,0-1.3,0-1.9c-0.3-0.5-0.6-1.2-1-1.6C75.9,27.5,73.6,27.5,72.1,29.1z"/>
<g>
	<path class="st1" d="M121.3,55h-9.7V41c0-1.1-0.1-1.8-0.3-2.2c-0.2-0.4-0.6-0.6-1.2-0.6c-1.1,0-1.6,1-1.6,2.9v14h-9.7V41
		c0-1.1-0.1-1.8-0.4-2.2s-0.6-0.6-1.2-0.6c-1.1,0-1.6,1-1.6,2.9v14h-9.7V39c0-2.9,1-5.4,2.9-7.4c2-2,4.3-3.1,7.1-3.1
		c2.9,0,5.5,1.2,7.8,3.6c2.6-2.4,5.1-3.6,7.7-3.6c3.2,0,5.9,1.2,7.8,3.5c1.5,1.8,2.3,4.5,2.3,8.1V55z"/>
	<path class="st1" d="M136.8,29v26H127V29H136.8z M131.9,17.4c1.3,0,2.5,0.5,3.4,1.4c1,0.9,1.4,2,1.4,3.3c0,1.4-0.5,2.5-1.4,3.3
		c-0.9,0.9-2.1,1.3-3.5,1.3c-1.4,0-2.6-0.4-3.5-1.3c-0.9-0.9-1.4-2-1.4-3.3c0-1.3,0.5-2.4,1.4-3.3C129.5,17.9,130.6,17.4,131.9,17.4
		z"/>
	<path class="st1" d="M158.4,43l9.7-0.4c-0.3,3.8-1.7,6.8-4.2,9.2s-5.6,3.6-9.2,3.6c-3.8,0-7-1.3-9.7-4c-2.6-2.7-3.9-5.9-3.9-9.8
		c0-3.7,1.3-6.8,4-9.4c2.7-2.6,5.8-3.9,9.6-3.9c3.2,0,6.1,1,8.6,3.1c2.5,2,4,4.7,4.6,7.8l-9.9,0.4c-0.9-1.1-1.9-1.7-3.2-1.7
		c-1.1,0-2,0.4-2.7,1.1c-0.7,0.7-1.1,1.7-1.1,2.8c0,1.1,0.4,2.1,1.1,2.8c0.8,0.8,1.7,1.1,2.8,1.1C156.6,45.9,157.8,45,158.4,43z"/>
	<path class="st2" d="M188.4,19.4h9.7v21.7c0,4-1,7.2-3.1,9.7c-1.2,1.4-2.7,2.6-4.6,3.4c-1.9,0.9-3.7,1.3-5.7,1.3
		c-3.9,0-7.1-1.3-9.8-3.9c-2.7-2.6-4-5.8-4-9.6c0-3.7,1.3-6.8,4-9.5c2.6-2.7,5.8-4,9.4-4c0.6,0,1.4,0.1,2.6,0.2v10.7
		c-0.8-0.6-1.6-0.9-2.4-0.9c-1,0-1.9,0.4-2.6,1.1c-0.7,0.7-1.1,1.6-1.1,2.7c0,1,0.4,1.9,1.1,2.6s1.6,1.1,2.7,1.1
		c2.5,0,3.8-1.7,3.8-5.2V19.4z"/>
	<path class="st2" d="M213,29v26h-9.7V29H213z M208.1,17.4c1.3,0,2.5,0.5,3.4,1.4c1,0.9,1.4,2,1.4,3.3c0,1.4-0.5,2.5-1.4,3.3
		c-0.9,0.9-2.1,1.3-3.5,1.3c-1.4,0-2.6-0.4-3.5-1.3c-0.9-0.9-1.4-2-1.4-3.3c0-1.3,0.5-2.4,1.4-3.3C205.7,17.9,206.8,17.4,208.1,17.4
		z"/>
	<path class="st2" d="M238.2,29l-12.1,27l-12-27h9.3l2.8,7l3-7H238.2z"/>
	<path class="st2" d="M264.8,43.6H250c-0.2-0.7-0.3-1.4-0.3-2.1c0-0.9,0.2-1.7,0.5-2.6h5c-0.3-1.9-1.4-2.9-3.3-2.9
		c-1.2,0-2.2,0.5-3,1.5c-0.8,1-1.1,2.4-1.1,4c0,1.7,0.4,3,1.1,4.1c0.7,1,1.7,1.6,2.9,1.6c1,0,1.9-0.5,2.8-1.5l5.5,6.7
		c-2.6,2-5.5,3-8.6,3c-3.9,0-7.1-1.3-9.7-3.9c-2.6-2.6-3.9-5.8-3.9-9.6c0-3.8,1.3-7,4-9.6s5.9-3.9,9.8-3.9c3.8,0,6.9,1.3,9.5,3.8
		c2.6,2.6,3.8,5.7,3.8,9.5C264.9,42.1,264.9,42.7,264.8,43.6z"/>
</g>
</svg>
